<svg width="16" height="16" viewBox="0 0 16 16" fill="none" xmlns="http://www.w3.org/2000/svg">
<path d="M14.7913 7.00459H3.62126L8.50126 2.12459C8.89126 1.73459 8.89126 1.09459 8.50126 0.704595C8.31442 0.517342 8.06077 0.412109 7.79626 0.412109C7.53174 0.412109 7.27809 0.517342 7.09126 0.704595L0.501255 7.29459C0.111255 7.68459 0.111255 8.31459 0.501255 8.70459L7.09126 15.2946C7.48126 15.6846 8.11126 15.6846 8.50126 15.2946C8.89126 14.9046 8.89126 14.2746 8.50126 13.8846L3.62126 9.00459H14.7913C15.3413 9.00459 15.7913 8.55459 15.7913 8.00459C15.7913 7.45459 15.3413 7.00459 14.7913 7.00459Z" fill="#0071C1"/>
</svg>
